<?xml version="1.0" encoding="UTF-8" standalone="no"?>
<?xml-stylesheet href="style.css" type="text/css"?>
<!DOCTYPE svg PUBLIC "-//W3C//DTD SVG 1.1//EN"
 "http://www.w3.org/Graphics/SVG/1.1/DTD/svg11.dtd">
<!-- Generated by graphviz version 3.0.0 (0)
 -->
<!-- Title: 2.svg Pages: 1 -->
<svg width="58pt" height="200pt"
 viewBox="0.00 0.00 58.00 200.00" xmlns="http://www.w3.org/2000/svg" xmlns:xlink="http://www.w3.org/1999/xlink">
<g id="graph0" class="graph" transform="scale(1 1) rotate(0) translate(4 196)">
<title>2.svg</title>
<polygon fill="white" stroke="transparent" points="-4,4 -4,-196 54,-196 54,4 -4,4"/>
<!-- r0 -->
<g id="node1" class="node">
<title>r0</title>
<polygon fill="none" stroke="black" stroke-dasharray="5,2" points="35.5,-192 14.5,-192 14.5,-174 35.5,-174 35.5,-192"/>
<text text-anchor="middle" x="25" y="-180.8" font-family="serif" font-size="9.00">0</text>
</g>
<!-- v0 -->
<g id="v0_Hello" class="node">
<title>v0</title>
<ellipse fill="none" stroke="black" cx="25" cy="-127" rx="25" ry="11"/>
<text text-anchor="middle" x="25" y="-124.8" font-family="sans-serif" font-size="9.00">Hello</text>
</g>
<!-- r0&#45;&gt;v0 -->
<g id="edge1" class="edge">
<title>r0&#45;&gt;v0</title>
<path fill="none" stroke="black" d="M25,-173.56C25,-165.45 25,-153.01 25,-143.18"/>
<polygon fill="black" stroke="black" points="25,-138.03 27.25,-143.03 25,-140.53 25,-143.03 25,-143.03 25,-143.03 25,-140.53 22.75,-143.03 25,-138.03 25,-138.03"/>
</g>
<!-- v1 -->
<g id="v1_World" class="node">
<title>v1</title>
<ellipse fill="none" stroke="black" cx="25" cy="-69" rx="25" ry="11"/>
<text text-anchor="middle" x="25" y="-66.8" font-family="sans-serif" font-size="9.00">World</text>
</g>
<!-- v0&#45;&gt;v1 -->
<g id="edge2" class="edge">
<title>v0&#45;&gt;v1</title>
<path fill="none" stroke="black" d="M25,-115.99C25,-107.49 25,-95.17 25,-85.42"/>
<polygon fill="black" stroke="black" points="25,-80.3 27.25,-85.3 25,-82.8 25,-85.3 25,-85.3 25,-85.3 25,-82.8 22.75,-85.3 25,-80.3 25,-80.3"/>
</g>
<!-- v2 -->
<g id="v2_World" class="node">
<title>v2</title>
<ellipse fill="none" stroke="black" cx="25" cy="-11" rx="25" ry="11"/>
<text text-anchor="middle" x="25" y="-8.8" font-family="sans-serif" font-size="9.00">World</text>
</g>
<!-- v1&#45;&gt;v2 -->
<g id="edge3" class="edge">
<title>v1&#45;&gt;v2</title>
<path fill="none" stroke="black" d="M25,-57.99C25,-49.49 25,-37.17 25,-27.42"/>
<polygon fill="black" stroke="black" points="25,-22.3 27.25,-27.3 25,-24.8 25,-27.3 25,-27.3 25,-27.3 25,-24.8 22.75,-27.3 25,-22.3 25,-22.3"/>
</g>
</g>
</svg>
