<?xml version="1.0" encoding="UTF-8" standalone="no"?>
<?xml-stylesheet href="style_sbrs.css" type="text/css"?>
<!DOCTYPE svg PUBLIC "-//W3C//DTD SVG 1.1//EN"
 "http://www.w3.org/Graphics/SVG/1.1/DTD/svg11.dtd">
<!-- Generated by graphviz version 3.0.0 (0)
 -->
<!-- Title: system.svg Pages: 1 -->
<svg width="71pt" height="450pt"
 viewBox="0.00 0.00 70.50 450.19" xmlns="http://www.w3.org/2000/svg" xmlns:xlink="http://www.w3.org/1999/xlink">
<g id="graph0" class="graph" transform="scale(1 1) rotate(0) translate(4 446.19)">
<title>system.svg</title>
<polygon fill="white" stroke="transparent" points="-4,4 -4,-446.19 66.5,-446.19 66.5,4 -4,4"/>
<!-- 0 -->
<g id="s0" class="node">
<title>0</title>
<g id="a_s0"><a xlink:href="out/bigraph/hello/0.svg" xlink:title="0">
<ellipse fill="none" stroke="black" stroke-width="2" cx="21.5" cy="-429.46" rx="21.5" ry="12.96"/>
<text text-anchor="middle" x="21.5" y="-427.26" font-family="monospace" font-size="9.00">0</text>
</a>
</g>
</g>
<!-- 1 -->
<g id="s1" class="node">
<title>1</title>
<g id="a_s1"><a xlink:href="out/bigraph/hello/1.svg" xlink:title="1">
<ellipse fill="none" stroke="black" cx="21.5" cy="-360.01" rx="21.5" ry="12.96"/>
<text text-anchor="middle" x="21.5" y="-357.81" font-family="monospace" font-size="9.00">1</text>
</a>
</g>
</g>
<!-- 0&#45;&gt;1 -->
<g id="edge2" class="edge">
<title>0&#45;&gt;1</title>
<path fill="none" stroke="black" d="M21.5,-416.71C21.5,-406.11 21.5,-390.37 21.5,-378.32"/>
<polygon fill="black" stroke="black" points="21.5,-373.08 23.75,-378.08 21.5,-375.58 21.5,-378.08 21.5,-378.08 21.5,-378.08 21.5,-375.58 19.25,-378.08 21.5,-373.08 21.5,-373.08"/>
<text text-anchor="middle" x="42" y="-393.14" font-family="monospace" font-size="7.00">add_world</text>
</g>
<!-- 4 -->
<g id="s4" class="node">
<title>4</title>
<g id="a_s4"><a xlink:href="out/bigraph/hello/4.svg" xlink:title="4">
<ellipse fill="none" stroke="black" cx="21.5" cy="-151.64" rx="21.5" ry="12.96"/>
<text text-anchor="middle" x="21.5" y="-149.44" font-family="monospace" font-size="9.00">4</text>
</a>
</g>
</g>
<!-- 5 -->
<g id="s5" class="node">
<title>5</title>
<g id="a_s5"><a xlink:href="out/bigraph/hello/5.svg" xlink:title="5">
<ellipse fill="none" stroke="black" cx="21.5" cy="-82.18" rx="21.5" ry="12.96"/>
<text text-anchor="middle" x="21.5" y="-79.98" font-family="monospace" font-size="9.00">5</text>
</a>
</g>
</g>
<!-- 4&#45;&gt;5 -->
<g id="edge4" class="edge">
<title>4&#45;&gt;5</title>
<path fill="none" stroke="black" d="M21.5,-138.89C21.5,-128.28 21.5,-112.54 21.5,-100.5"/>
<polygon fill="black" stroke="black" points="21.5,-95.25 23.75,-100.25 21.5,-97.75 21.5,-100.25 21.5,-100.25 21.5,-100.25 21.5,-97.75 19.25,-100.25 21.5,-95.25 21.5,-95.25"/>
<text text-anchor="middle" x="42" y="-115.31" font-family="monospace" font-size="7.00">add_world</text>
</g>
<!-- 3 -->
<g id="s3" class="node">
<title>3</title>
<g id="a_s3"><a xlink:href="out/bigraph/hello/3.svg" xlink:title="3">
<ellipse fill="none" stroke="black" cx="21.5" cy="-221.1" rx="21.5" ry="12.96"/>
<text text-anchor="middle" x="21.5" y="-218.9" font-family="monospace" font-size="9.00">3</text>
</a>
</g>
</g>
<!-- 3&#45;&gt;4 -->
<g id="edge6" class="edge">
<title>3&#45;&gt;4</title>
<path fill="none" stroke="black" d="M21.5,-208.35C21.5,-197.74 21.5,-182 21.5,-169.95"/>
<polygon fill="black" stroke="black" points="21.5,-164.71 23.75,-169.71 21.5,-167.21 21.5,-169.71 21.5,-169.71 21.5,-169.71 21.5,-167.21 19.25,-169.71 21.5,-164.71 21.5,-164.71"/>
<text text-anchor="middle" x="42" y="-184.77" font-family="monospace" font-size="7.00">add_world</text>
</g>
<!-- 6 -->
<g id="s6" class="node">
<title>6</title>
<g id="a_s6"><a xlink:href="out/bigraph/hello/6.svg" xlink:title="6">
<ellipse fill="none" stroke="black" cx="21.5" cy="-12.73" rx="21.5" ry="12.96"/>
<text text-anchor="middle" x="21.5" y="-10.53" font-family="monospace" font-size="9.00">6</text>
</a>
</g>
</g>
<!-- 5&#45;&gt;6 -->
<g id="edge5" class="edge">
<title>5&#45;&gt;6</title>
<path fill="none" stroke="black" d="M21.5,-69.43C21.5,-58.83 21.5,-43.09 21.5,-31.04"/>
<polygon fill="black" stroke="black" points="21.5,-25.8 23.75,-30.8 21.5,-28.3 21.5,-30.8 21.5,-30.8 21.5,-30.8 21.5,-28.3 19.25,-30.8 21.5,-25.8 21.5,-25.8"/>
<text text-anchor="middle" x="42" y="-45.86" font-family="monospace" font-size="7.00">add_world</text>
</g>
<!-- 2 -->
<g id="s2" class="node">
<title>2</title>
<g id="a_s2"><a xlink:href="out/bigraph/hello/2.svg" xlink:title="2">
<ellipse fill="none" stroke="black" cx="21.5" cy="-290.55" rx="21.5" ry="12.96"/>
<text text-anchor="middle" x="21.5" y="-288.35" font-family="monospace" font-size="9.00">2</text>
</a>
</g>
</g>
<!-- 2&#45;&gt;3 -->
<g id="edge1" class="edge">
<title>2&#45;&gt;3</title>
<path fill="none" stroke="black" d="M21.5,-277.8C21.5,-267.2 21.5,-251.45 21.5,-239.41"/>
<polygon fill="black" stroke="black" points="21.5,-234.16 23.75,-239.16 21.5,-236.66 21.5,-239.16 21.5,-239.16 21.5,-239.16 21.5,-236.66 19.25,-239.16 21.5,-234.16 21.5,-234.16"/>
<text text-anchor="middle" x="42" y="-254.22" font-family="monospace" font-size="7.00">add_world</text>
</g>
<!-- 1&#45;&gt;2 -->
<g id="edge3" class="edge">
<title>1&#45;&gt;2</title>
<path fill="none" stroke="black" d="M21.5,-347.26C21.5,-336.65 21.5,-320.91 21.5,-308.86"/>
<polygon fill="black" stroke="black" points="21.5,-303.62 23.75,-308.62 21.5,-306.12 21.5,-308.62 21.5,-308.62 21.5,-308.62 21.5,-306.12 19.25,-308.62 21.5,-303.62 21.5,-303.62"/>
<text text-anchor="middle" x="42" y="-323.68" font-family="monospace" font-size="7.00">add_world</text>
</g>
</g>
</svg>
