<?xml version="1.0" encoding="UTF-8" standalone="no"?>
<?xml-stylesheet href="style.css" type="text/css"?>
<!DOCTYPE svg PUBLIC "-//W3C//DTD SVG 1.1//EN"
 "http://www.w3.org/Graphics/SVG/1.1/DTD/svg11.dtd">
<!-- Generated by graphviz version 3.0.0 (0)
 -->
<!-- Title: 0.svg Pages: 1 -->
<svg width="58pt" height="84pt"
 viewBox="0.00 0.00 58.00 84.00" xmlns="http://www.w3.org/2000/svg" xmlns:xlink="http://www.w3.org/1999/xlink">
<g id="graph0" class="graph" transform="scale(1 1) rotate(0) translate(4 80)">
<title>0.svg</title>
<polygon fill="white" stroke="transparent" points="-4,4 -4,-80 54,-80 54,4 -4,4"/>
<!-- r0 -->
<g id="node1" class="node">
<title>r0</title>
<polygon fill="none" stroke="black" stroke-dasharray="5,2" points="35.5,-76 14.5,-76 14.5,-58 35.5,-58 35.5,-76"/>
<text text-anchor="middle" x="25" y="-64.8" font-family="serif" font-size="9.00">0</text>
</g>
<!-- v0 -->
<g id="v0_Hello" class="node">
<title>v0</title>
<ellipse fill="none" stroke="black" cx="25" cy="-11" rx="25" ry="11"/>
<text text-anchor="middle" x="25" y="-8.8" font-family="sans-serif" font-size="9.00">Hello</text>
</g>
<!-- r0&#45;&gt;v0 -->
<g id="edge1" class="edge">
<title>r0&#45;&gt;v0</title>
<path fill="none" stroke="black" d="M25,-57.56C25,-49.45 25,-37.01 25,-27.18"/>
<polygon fill="black" stroke="black" points="25,-22.03 27.25,-27.03 25,-24.53 25,-27.03 25,-27.03 25,-27.03 25,-24.53 22.75,-27.03 25,-22.03 25,-22.03"/>
</g>
</g>
</svg>
