<?xml version="1.0" encoding="UTF-8" standalone="no"?>
<?xml-stylesheet href="style.css" type="text/css"?>
<!DOCTYPE svg PUBLIC "-//W3C//DTD SVG 1.1//EN"
 "http://www.w3.org/Graphics/SVG/1.1/DTD/svg11.dtd">
<!-- Generated by graphviz version 3.0.0 (0)
 -->
<!-- Title: 6.svg Pages: 1 -->
<svg width="58pt" height="432pt"
 viewBox="0.00 0.00 58.00 432.00" xmlns="http://www.w3.org/2000/svg" xmlns:xlink="http://www.w3.org/1999/xlink">
<g id="graph0" class="graph" transform="scale(1 1) rotate(0) translate(4 428)">
<title>6.svg</title>
<polygon fill="white" stroke="transparent" points="-4,4 -4,-428 54,-428 54,4 -4,4"/>
<!-- r0 -->
<g id="node1" class="node">
<title>r0</title>
<polygon fill="none" stroke="black" stroke-dasharray="5,2" points="35.5,-424 14.5,-424 14.5,-406 35.5,-406 35.5,-424"/>
<text text-anchor="middle" x="25" y="-412.8" font-family="serif" font-size="9.00">0</text>
</g>
<!-- v0 -->
<g id="v0_Hello" class="node">
<title>v0</title>
<ellipse fill="none" stroke="black" cx="25" cy="-359" rx="25" ry="11"/>
<text text-anchor="middle" x="25" y="-356.8" font-family="sans-serif" font-size="9.00">Hello</text>
</g>
<!-- r0&#45;&gt;v0 -->
<g id="edge1" class="edge">
<title>r0&#45;&gt;v0</title>
<path fill="none" stroke="black" d="M25,-405.56C25,-397.45 25,-385.01 25,-375.18"/>
<polygon fill="black" stroke="black" points="25,-370.03 27.25,-375.03 25,-372.53 25,-375.03 25,-375.03 25,-375.03 25,-372.53 22.75,-375.03 25,-370.03 25,-370.03"/>
</g>
<!-- v1 -->
<g id="v1_World" class="node">
<title>v1</title>
<ellipse fill="none" stroke="black" cx="25" cy="-301" rx="25" ry="11"/>
<text text-anchor="middle" x="25" y="-298.8" font-family="sans-serif" font-size="9.00">World</text>
</g>
<!-- v0&#45;&gt;v1 -->
<g id="edge2" class="edge">
<title>v0&#45;&gt;v1</title>
<path fill="none" stroke="black" d="M25,-347.99C25,-339.49 25,-327.17 25,-317.42"/>
<polygon fill="black" stroke="black" points="25,-312.3 27.25,-317.3 25,-314.8 25,-317.3 25,-317.3 25,-317.3 25,-314.8 22.75,-317.3 25,-312.3 25,-312.3"/>
</g>
<!-- v2 -->
<g id="v2_World" class="node">
<title>v2</title>
<ellipse fill="none" stroke="black" cx="25" cy="-243" rx="25" ry="11"/>
<text text-anchor="middle" x="25" y="-240.8" font-family="sans-serif" font-size="9.00">World</text>
</g>
<!-- v1&#45;&gt;v2 -->
<g id="edge3" class="edge">
<title>v1&#45;&gt;v2</title>
<path fill="none" stroke="black" d="M25,-289.99C25,-281.49 25,-269.17 25,-259.42"/>
<polygon fill="black" stroke="black" points="25,-254.3 27.25,-259.3 25,-256.8 25,-259.3 25,-259.3 25,-259.3 25,-256.8 22.75,-259.3 25,-254.3 25,-254.3"/>
</g>
<!-- v3 -->
<g id="v3_World" class="node">
<title>v3</title>
<ellipse fill="none" stroke="black" cx="25" cy="-185" rx="25" ry="11"/>
<text text-anchor="middle" x="25" y="-182.8" font-family="sans-serif" font-size="9.00">World</text>
</g>
<!-- v2&#45;&gt;v3 -->
<g id="edge4" class="edge">
<title>v2&#45;&gt;v3</title>
<path fill="none" stroke="black" d="M25,-231.99C25,-223.49 25,-211.17 25,-201.42"/>
<polygon fill="black" stroke="black" points="25,-196.3 27.25,-201.3 25,-198.8 25,-201.3 25,-201.3 25,-201.3 25,-198.8 22.75,-201.3 25,-196.3 25,-196.3"/>
</g>
<!-- v4 -->
<g id="v4_World" class="node">
<title>v4</title>
<ellipse fill="none" stroke="black" cx="25" cy="-127" rx="25" ry="11"/>
<text text-anchor="middle" x="25" y="-124.8" font-family="sans-serif" font-size="9.00">World</text>
</g>
<!-- v3&#45;&gt;v4 -->
<g id="edge5" class="edge">
<title>v3&#45;&gt;v4</title>
<path fill="none" stroke="black" d="M25,-173.99C25,-165.49 25,-153.17 25,-143.42"/>
<polygon fill="black" stroke="black" points="25,-138.3 27.25,-143.3 25,-140.8 25,-143.3 25,-143.3 25,-143.3 25,-140.8 22.75,-143.3 25,-138.3 25,-138.3"/>
</g>
<!-- v5 -->
<g id="v5_World" class="node">
<title>v5</title>
<ellipse fill="none" stroke="black" cx="25" cy="-69" rx="25" ry="11"/>
<text text-anchor="middle" x="25" y="-66.8" font-family="sans-serif" font-size="9.00">World</text>
</g>
<!-- v4&#45;&gt;v5 -->
<g id="edge6" class="edge">
<title>v4&#45;&gt;v5</title>
<path fill="none" stroke="black" d="M25,-115.99C25,-107.49 25,-95.17 25,-85.42"/>
<polygon fill="black" stroke="black" points="25,-80.3 27.25,-85.3 25,-82.8 25,-85.3 25,-85.3 25,-85.3 25,-82.8 22.75,-85.3 25,-80.3 25,-80.3"/>
</g>
<!-- v6 -->
<g id="v6_World" class="node">
<title>v6</title>
<ellipse fill="none" stroke="black" cx="25" cy="-11" rx="25" ry="11"/>
<text text-anchor="middle" x="25" y="-8.8" font-family="sans-serif" font-size="9.00">World</text>
</g>
<!-- v5&#45;&gt;v6 -->
<g id="edge7" class="edge">
<title>v5&#45;&gt;v6</title>
<path fill="none" stroke="black" d="M25,-57.99C25,-49.49 25,-37.17 25,-27.42"/>
<polygon fill="black" stroke="black" points="25,-22.3 27.25,-27.3 25,-24.8 25,-27.3 25,-27.3 25,-27.3 25,-24.8 22.75,-27.3 25,-22.3 25,-22.3"/>
</g>
</g>
</svg>
